<?xml version="1.0" encoding="utf-8" ?>
<svg xmlns="http://www.w3.org/2000/svg" xmlns:xlink="http://www.w3.org/1999/xlink" width="189" height="94">
	<rect fill="white" width="189" height="94"/>
	<text font-size="8" font-family="Courier New" x="39.5, 44.300781, 49.101562, 53.902344, 58.703125, 63.503906, 68.304688, 73.105469, 77.90625, 82.707031, 87.507812, 92.308594, 97.109375, 101.91016, 106.71094, 111.51172, 116.3125, 121.11328, 125.91406, 130.71484, 135.51562, 140.31641, 145.11719, " y="6.6601562, ">
			ISBN: 978---3-982-602-2
	</text>
	<rect transform="translate(11 9)" width="1.750518" height="73.835434"/>
	<rect transform="translate(11 9)" x="3.5010359" width="1.7505181" height="73.835434"/>
	<rect transform="translate(11 9)" x="7.0020719" width="5.251554" height="69.035431"/>
	<rect transform="translate(11 9)" x="14.004144" width="3.5010366" height="69.035431"/>
	<rect transform="translate(11 9)" x="22.756733" width="1.7505188" height="69.035431"/>
	<rect transform="translate(11 9)" x="28.008287" width="1.7505188" height="69.035431"/>
	<rect transform="translate(11 9)" x="31.509323" width="1.7505188" height="69.035431"/>
	<rect transform="translate(11 9)" x="40.261913" width="1.7505188" height="69.035431"/>
	<rect transform="translate(11 9)" x="47.263988" width="1.7505188" height="69.035431"/>
	<rect transform="translate(11 9)" x="50.765022" width="3.5010376" height="69.035431"/>
	<rect transform="translate(11 9)" x="59.517616" width="1.7505188" height="69.035431"/>
	<rect transform="translate(11 9)" x="64.769165" width="1.7505188" height="69.035431"/>
	<rect transform="translate(11 9)" x="70.020721" width="1.7505188" height="69.035431"/>
	<rect transform="translate(11 9)" x="75.272278" width="3.5010376" height="69.035431"/>
	<rect transform="translate(11 9)" x="80.523827" width="1.7505188" height="73.835434"/>
	<rect transform="translate(11 9)" x="84.024872" width="1.7505188" height="73.835434"/>
	<rect transform="translate(11 9)" x="87.525902" width="1.7505188" height="69.035431"/>
	<rect transform="translate(11 9)" x="91.026932" width="1.7505188" height="69.035431"/>
	<rect transform="translate(11 9)" x="99.779526" width="5.2515564" height="69.035431"/>
	<rect transform="translate(11 9)" x="108.53212" width="1.7505188" height="69.035431"/>
	<rect transform="translate(11 9)" x="112.03315" width="3.5010376" height="69.035431"/>
	<rect transform="translate(11 9)" x="117.28471" width="3.5010376" height="69.035431"/>
	<rect transform="translate(11 9)" x="124.28679" width="3.5010376" height="69.035431"/>
	<rect transform="translate(11 9)" x="129.53833" width="3.5010376" height="69.035431"/>
	<rect transform="translate(11 9)" x="136.54041" width="1.7505188" height="69.035431"/>
	<rect transform="translate(11 9)" x="143.54248" width="1.7505188" height="69.035431"/>
	<rect transform="translate(11 9)" x="148.79404" width="3.5010376" height="69.035431"/>
	<rect transform="translate(11 9)" x="155.7961" width="3.5010376" height="69.035431"/>
	<rect transform="translate(11 9)" x="161.04765" width="1.7505188" height="73.835434"/>
	<rect transform="translate(11 9)" x="164.54869" width="1.7505188" height="73.835434"/>
	<text transform="translate(11 9)" font-size="15" font-family="Arial" x="-11, " y="82.579102, ">
			9
	</text>
	<text transform="translate(11 9)" font-size="15" font-family="Arial" x="18, 26.342285, 34.68457, 43.026855, 51.369141, 59.711426, " y="82.579102, ">
			783982
	</text>
	<text transform="translate(11 9)" font-size="15" font-family="Arial" x="98, 106.34229, 114.68457, 123.02686, 131.36914, 139.71143, " y="82.579102, ">
			602271
	</text>
</svg>
